<svg xmlns="http://www.w3.org/2000/svg" class="icon" width="24" height="22" viewBox="0 0 24 22"><path d="M21.636 7.199a.655.655 0 0 0 .655-.656V5.031a.656.656 0 0 0-.425-.614L12.262.727a1.31 1.31 0 0 0-.921 0l-9.604 3.69a.704.704 0 0 0-.426.614v1.512c0 .362.294.656.656.656h19.669zm-3.132-1.967H5.098l6.703-2.576 6.703 2.576zm4.443 16.39a.655.655 0 0 0 .655-.655v-.656a.655.655 0 0 0-.655-.655h-.656v-2.623c0-.724-.67-1.311-1.498-1.311h-1.124V8.51h-1.967v7.212h-2.623V8.51h-1.967v7.212H10.49V8.51H8.523v7.212H5.901V8.51H3.934v7.212H2.81c-.828 0-1.499.587-1.499 1.311v2.623H.656A.655.655 0 0 0 0 20.31v.656c0 .362.293.655.656.655h22.29zm-2.623-1.966H3.278v-1.967h17.046v1.967z"></path></svg>