<svg xmlns="http://www.w3.org/2000/svg" class="icon" width="26" height="27" viewBox="0 0 26 27"><path d="M12.99 26.248a5.269 5.269 0 0 0 4.4-2.37 5.255 5.255 0 0 0 4.785-1.436 5.253 5.253 0 0 0 1.436-4.785 5.265 5.265 0 0 0 2.37-4.4c0-1.852-.954-3.47-2.37-4.4a5.263 5.263 0 0 0-1.436-4.785 5.253 5.253 0 0 0-4.785-1.436 5.27 5.27 0 0 0-8.8 0 5.263 5.263 0 0 0-4.784 1.436A5.253 5.253 0 0 0 2.37 8.858a5.265 5.265 0 0 0-2.37 4.4c0 1.841.949 3.465 2.37 4.399a5.263 5.263 0 0 0 1.436 4.785 5.242 5.242 0 0 0 4.785 1.436 5.265 5.265 0 0 0 4.4 2.37zm0-2.436c-2.298 0-2.775-2.172-3.105-3.055-1.07.487-2.786 1.533-4.359-.04-1.624-1.624-.426-3.497-.035-4.354-1.046-.391-3.055-.878-3.055-3.106 0-2.299 2.172-2.776 3.06-3.11-.462-1.01-1.538-2.781.035-4.354 1.624-1.624 3.496-.427 4.354-.036.39-1.045.878-3.055 3.105-3.055 2.3 0 2.776 2.172 3.106 3.065 1.01-.461 2.78-1.537 4.354.036 1.624 1.624.426 3.496.035 4.354 1.046.39 3.055.878 3.055 3.105 0 2.299-2.172 2.776-3.055 3.106.462 1.01 1.538 2.78-.035 4.354-1.421 1.42-2.806.735-4.354.035-.39 1.045-.878 3.055-3.106 3.055zm.406-4.06a.812.812 0 0 0 .812-.812v-.89a2.855 2.855 0 0 0 2.503-3.2c-.147-1.165-1.048-2.096-2.177-2.419l-2.541-.726a.455.455 0 0 1-.31-.411c0-.236.191-.427.428-.427h1.663c.183 0 .36.039.52.112.244.112.527.087.717-.103l.889-.889c.267-.267.237-.724-.079-.932a3.705 3.705 0 0 0-1.613-.582v-.9a.812.812 0 0 0-.812-.811h-.811a.812.812 0 0 0-.812.812v.89a2.855 2.855 0 0 0-2.503 3.2c.147 1.165 1.048 2.097 2.177 2.42l2.541.725c.171.05.31.234.31.411a.428.428 0 0 1-.428.428h-1.663c-.137 0-.27-.022-.397-.064l-.124-.049c-.243-.112-.526-.087-.716.103l-.889.89c-.267.267-.237.724.079.932a3.705 3.705 0 0 0 1.613.581v.9c0 .448.363.811.812.811h.811z"></path></svg>