<svg xmlns="http://www.w3.org/2000/svg" class="icon" width="23" height="19" viewBox="0 0 23 19"><path d="M8.742 18.249A1.254 1.254 0 0 0 9.99 17v-4.059h2.498V17a1.254 1.254 0 0 0 1.249 1.249h4.995a1.255 1.255 0 0 0 1.249-1.24V9.73l1.074.882c.096.08.276.146.4.146.162 0 .376-.1.48-.224l.399-.48a.725.725 0 0 0 .146-.4.708.708 0 0 0-.226-.481L19.98 7.303V3.575a.312.312 0 0 0-.312-.312h-1.25a.314.314 0 0 0-.31.308v2.194l-5.47-4.492c-.336-.28-.963-.507-1.4-.507-.437 0-1.064.227-1.4.507L.225 9.172A.709.709 0 0 0 0 9.65c0 .125.065.305.146.4l.4.48a.709.709 0 0 0 .478.224.725.725 0 0 0 .4-.145l1.073-.88V17a1.254 1.254 0 0 0 1.248 1.249h4.996zm-.625-1.873H4.371V8.19l6.868-5.644 6.869 5.641-.006 8.188h-3.74v-4.059a1.254 1.254 0 0 0-1.25-1.249H9.366a1.254 1.254 0 0 0-1.249 1.249v4.059z"></path></svg>