<svg xmlns="http://www.w3.org/2000/svg" class="icon" width="21" height="21" viewBox="0 0 21 21"><path d="M14.903 20.008a1.874 1.874 0 0 0 1.873-1.873V1.9A1.874 1.874 0 0 0 14.903.027H6.14A1.874 1.874 0 0 0 4.268 1.9v16.235c0 1.034.84 1.873 1.873 1.873h8.762zm-.235-1.873H6.376c-.13 0-.235-.145-.235-.274V2.134c0-.129.106-.234.235-.234h8.292c.13 0 .235.105.235.234v15.727c0 .13-.106.274-.235.274zm4.664-12.8a.235.235 0 0 0 .234-.235v-.234h.703a.235.235 0 0 0 .234-.234v-.469a.235.235 0 0 0-.234-.234h-.703v-.234a.235.235 0 0 0-.234-.234h-1.64v1.873h1.64zm-16 0V3.46h-1.64a.235.235 0 0 0-.234.234v.234H.756a.235.235 0 0 0-.234.234v.469c0 .129.105.234.234.234h.702V5.1c0 .129.106.234.234.234h1.64zm16 3.746a.235.235 0 0 0 .234-.234v-.235h.703a.235.235 0 0 0 .234-.234V7.91a.235.235 0 0 0-.234-.234h-.703v-.234a.235.235 0 0 0-.234-.235h-1.64v1.874h1.64zm-16 0V7.207h-1.64a.235.235 0 0 0-.234.235v.234H.756a.235.235 0 0 0-.234.234v.468c0 .129.105.234.234.234h.702v.235c0 .128.106.234.234.234h1.64zm16 3.746a.235.235 0 0 0 .234-.234v-.234h.703a.235.235 0 0 0 .234-.234v-.469a.235.235 0 0 0-.234-.234h-.703v-.234a.235.235 0 0 0-.234-.234h-1.64v1.873h1.64zm-16 0v-1.873h-1.64a.235.235 0 0 0-.234.234v.234H.756a.235.235 0 0 0-.234.234v.469c0 .128.105.234.234.234h.702v.234c0 .129.106.234.234.234h1.64zm16 3.747a.235.235 0 0 0 .234-.235v-.234h.703a.235.235 0 0 0 .234-.234v-.468a.235.235 0 0 0-.234-.234h-.703v-.235a.235.235 0 0 0-.234-.234h-1.64v1.874h1.64zm-16 0V14.7h-1.64a.235.235 0 0 0-.234.234v.235H.756a.235.235 0 0 0-.234.234v.468c0 .129.105.234.234.234h.702v.234c0 .13.106.235.234.235h1.64z"></path></svg>